<svg version="1.0" xmlns="http://www.w3.org/2000/svg"
 width="517.000000pt" height="495.000000pt" viewBox="0 0 517.000000 495.000000"
 preserveAspectRatio="xMidYMid meet">

<g transform="translate(0.000000,495.000000) scale(0.100000,-0.100000)"
fill="currentColor" stroke="none">
<path d="M1353 4930 c-17 -10 -37 -28 -42 -39 -16 -29 -13 -91 7 -133 19 -42
158 -175 332 -319 64 -53 128 -108 144 -122 16 -15 37 -27 48 -27 10 0 60 28
110 61 l92 62 -23 19 c-13 10 -89 80 -170 157 -80 76 -177 165 -216 198 -38
33 -79 70 -90 83 -38 43 -97 80 -129 80 -17 0 -45 -9 -63 -20z"/>
<path d="M3663 4898 c-21 -18 -83 -73 -138 -123 -55 -50 -121 -108 -147 -128
-26 -21 -93 -83 -149 -138 -116 -114 -118 -96 14 -168 58 -31 86 -41 108 -37
39 6 112 62 229 175 52 51 136 126 186 167 86 69 105 94 119 154 7 31 -9 77
-37 108 -18 18 -32 22 -84 22 -57 0 -67 -3 -101 -32z"/>
<path d="M2520 4510 c-74 -26 -83 -31 -250 -130 -335 -199 -391 -231 -465
-270 -185 -99 -249 -152 -280 -233 -14 -38 -15 -65 -8 -198 10 -182 1 -176
138 -91 73 45 258 153 480 282 17 9 55 33 85 52 86 55 171 95 220 103 84 14
261 5 307 -15 42 -18 305 -167 503 -285 231 -137 374 -210 390 -200 6 4 10 68
10 174 0 167 0 168 -31 229 -33 67 -52 83 -174 153 -44 25 -150 88 -235 141
-299 184 -544 308 -605 308 -16 -1 -55 -10 -85 -20z"/>
<path d="M2499 3786 c-60 -21 -1045 -576 -1108 -624 -61 -45 -101 -96 -116
-142 -11 -37 -13 -169 -12 -730 2 -681 2 -685 24 -725 11 -22 34 -52 50 -67
23 -22 336 -204 973 -567 189 -108 268 -128 374 -96 76 23 139 58 711 393 390
228 471 284 495 341 7 18 10 248 8 748 l-3 721 -30 44 c-18 24 -64 65 -106 93
-123 82 -1024 588 -1088 611 -46 17 -126 17 -172 0z m166 -367 c84 -31 115
-62 115 -112 0 -23 -8 -57 -18 -76 -35 -71 -213 -117 -292 -76 -40 21 -89 83
-96 123 -9 45 10 76 65 111 92 56 140 62 226 30z m772 -383 c3 -2 -5 -24 -18
-48 -28 -51 -57 -70 -369 -250 -387 -224 -394 -230 -404 -342 -3 -34 -8 -273
-11 -532 -3 -259 -8 -484 -11 -500 -7 -37 -32 -76 -45 -69 -34 22 -36 54 -41
576 l-5 517 -27 48 c-36 66 -118 124 -411 289 -294 167 -345 202 -359 251 -9
28 28 44 102 44 65 -1 94 -15 432 -209 191 -109 264 -141 323 -141 44 0 146
45 290 126 71 41 131 74 133 74 1 0 51 28 111 62 175 99 223 120 266 114 21
-2 41 -7 44 -10z m-1759 -410 c96 -51 134 -160 97 -283 -12 -40 -21 -53 -45
-63 -62 -26 -134 13 -194 104 -22 33 -26 50 -26 116 0 95 13 115 85 129 28 5
51 9 53 10 2 0 15 -5 30 -13z m1905 2 c47 -14 77 -56 77 -108 0 -70 -92 -214
-159 -249 -20 -11 -26 -10 -50 13 -42 40 -65 116 -57 189 8 75 37 123 91 148
48 22 47 22 98 7z m-1317 -309 c35 -29 53 -85 56 -177 4 -107 -9 -130 -67
-126 -67 6 -110 40 -144 114 -37 81 -23 170 29 198 29 15 103 10 126 -9z
m-287 -252 c39 -36 61 -95 61 -169 0 -75 -12 -115 -36 -125 -30 -11 -120 25
-147 60 -44 58 -61 164 -34 217 27 53 106 62 156 17z m1286 27 c24 -9 44 -55
51 -117 14 -123 -97 -255 -161 -190 -26 26 -35 59 -35 133 0 62 3 72 33 112
18 23 44 48 57 55 29 15 33 15 55 7z m-1591 -235 c66 -52 93 -172 58 -252 -20
-44 -23 -47 -59 -47 -49 0 -95 29 -130 81 -24 36 -28 53 -27 108 0 79 11 101
56 117 49 18 72 16 102 -7z m572 -295 c83 -84 102 -230 31 -248 -31 -7 -104
18 -134 46 -34 32 -54 104 -46 163 7 58 24 74 75 75 30 0 45 -7 74 -36z m828
14 c22 -30 20 -113 -3 -163 -32 -71 -84 -103 -156 -96 -70 6 -57 144 22 231
39 44 50 50 83 50 29 0 43 -6 54 -22z"/>
<path d="M185 3728 c-55 -30 -73 -110 -38 -166 23 -36 502 -534 529 -549 32
-18 165 -51 257 -63 45 -6 92 -13 104 -15 19 -5 23 1 33 52 6 32 20 84 31 117
21 59 18 74 -16 77 -5 0 -21 3 -35 5 -14 2 -50 9 -80 14 -174 30 -179 32 -227
85 -121 134 -211 230 -237 254 -16 14 -69 65 -118 114 -86 85 -89 87 -135 87
-27 0 -57 -6 -68 -12z"/>
<path d="M4870 3733 c-8 -3 -58 -47 -110 -97 -52 -50 -108 -103 -125 -117 -16
-14 -87 -85 -156 -158 l-127 -133 -73 -9 c-41 -4 -83 -10 -94 -12 -42 -10
-131 -21 -145 -18 -11 2 -9 -4 7 -21 24 -26 60 -127 70 -194 4 -30 9 -41 17
-35 13 10 179 41 223 41 18 0 56 9 85 20 46 17 80 47 249 217 289 293 337 346
344 386 8 44 -23 108 -60 125 -27 12 -78 15 -105 5z"/>
<path d="M355 2361 c-239 -5 -274 -8 -299 -24 -58 -38 -68 -124 -22 -182 18
-22 35 -30 77 -36 30 -4 253 -7 497 -6 l442 2 0 117 c0 65 0 121 0 124 0 9
-384 12 -695 5z"/>
<path d="M4127 2304 c-4 -38 -7 -96 -7 -129 l0 -61 468 1 c499 0 527 3 558 49
8 13 17 39 20 57 7 45 -27 97 -81 124 -38 18 -66 20 -496 23 l-456 4 -6 -68z"/>
<path d="M4095 1518 c-9 -40 -27 -92 -40 -115 -23 -42 -23 -43 -3 -43 11 0 54
-9 96 -19 43 -11 101 -22 129 -26 51 -7 56 -10 135 -98 46 -50 106 -116 133
-147 105 -114 153 -177 178 -230 l26 -55 -6 -225 c-5 -212 -4 -228 15 -272 16
-37 29 -51 59 -63 51 -22 99 -13 138 25 l30 30 3 297 c2 215 0 305 -9 327 -16
41 -74 120 -178 240 -47 55 -110 128 -140 164 -82 99 -208 221 -233 226 -13 3
-75 17 -139 31 -64 14 -130 25 -146 25 -29 0 -31 -2 -48 -72z"/>
<path d="M835 1565 c-5 -2 -27 -6 -47 -10 -30 -5 -54 -23 -126 -98 -50 -51
-125 -133 -168 -184 -44 -51 -126 -147 -183 -214 -57 -67 -110 -138 -117 -158
-19 -53 -19 -569 0 -614 21 -50 52 -72 100 -71 54 1 80 16 116 66 l30 41 0
221 c1 122 5 240 9 263 9 47 105 166 362 450 16 18 29 37 29 42 0 10 47 21
170 41 111 18 112 18 101 39 -12 22 -35 90 -51 149 l-11 42 -102 -1 c-56 0
-106 -2 -112 -4z"/>
<path d="M1262 1128 c4 -198 5 -203 75 -294 14 -20 197 -148 441 -312 438
-292 644 -432 714 -482 34 -25 50 -30 98 -30 49 0 65 5 106 33 27 18 159 109
294 202 217 149 597 403 719 480 62 38 124 102 152 155 22 41 24 59 27 224 3
114 0 182 -6 188 -8 8 -37 -6 -94 -45 -101 -67 -408 -254 -538 -327 -108 -60
-188 -107 -275 -161 -94 -57 -235 -126 -294 -143 -70 -20 -145 -20 -205 0 -26
9 -127 62 -224 118 -406 234 -520 301 -577 336 -33 21 -109 66 -170 101 -60
35 -134 80 -164 101 -86 60 -83 65 -79 -144z"/>
</g>
</svg>
